<?xml version="1.0" encoding="utf-8"?>
<!-- Generator: Adobe Illustrator 16.0.0, SVG Export Plug-In . SVG Version: 6.00 Build 0)  -->
<!DOCTYPE svg PUBLIC "-//W3C//DTD SVG 1.1//EN" "http://www.w3.org/Graphics/SVG/1.1/DTD/svg11.dtd">
<svg version="1.1" id="Layer_1" xmlns="http://www.w3.org/2000/svg" xmlns:xlink="http://www.w3.org/1999/xlink" x="0px" y="0px"
	 width="1331.734px" height="1235.753px" viewBox="-147.008 14.988 1331.734 1235.753"
	 enable-background="new -147.008 14.988 1331.734 1235.753" xml:space="preserve">
<g id="Layer_3">
</g>
<g id="Layer_2">
</g>
<g id="Layer_1_1_">
	<g>
		<g>
			<polygon points="314.688,196.012 717.417,893.515 1000.663,893.515 597.673,196.012 			"/>
		</g>
		<g>
			<line fill="none" stroke="#000000" stroke-miterlimit="10" x1="466.399" y1="455.676" x2="711.129" y2="893.515"/>
			<line fill="none" stroke="#000000" stroke-miterlimit="10" x1="466.138" y1="455.676" x2="698.813" y2="893.515"/>
			<line fill="none" stroke="#000000" stroke-miterlimit="10" x1="466.138" y1="455.676" x2="686.498" y2="893.515"/>
			<line fill="none" stroke="#000000" stroke-miterlimit="10" x1="466.138" y1="455.676" x2="674.184" y2="893.515"/>
			<line fill="none" stroke="#000000" stroke-miterlimit="10" x1="466.138" y1="455.676" x2="661.868" y2="893.515"/>
			<line fill="none" stroke="#000000" stroke-miterlimit="10" x1="466.138" y1="455.676" x2="649.554" y2="893.515"/>
			<line fill="none" stroke="#000000" stroke-miterlimit="10" x1="466.138" y1="455.676" x2="637.238" y2="893.515"/>
			<line fill="none" stroke="#000000" stroke-miterlimit="10" x1="465.876" y1="455.676" x2="624.661" y2="893.515"/>
			<line fill="none" stroke="#000000" stroke-miterlimit="10" x1="465.876" y1="455.676" x2="612.347" y2="893.515"/>
			<line fill="none" stroke="#000000" stroke-miterlimit="10" x1="465.876" y1="455.676" x2="600.031" y2="893.515"/>
			<line fill="none" stroke="#000000" stroke-miterlimit="10" x1="465.876" y1="455.676" x2="587.716" y2="893.515"/>
			<line fill="none" stroke="#000000" stroke-miterlimit="10" x1="465.876" y1="455.676" x2="575.401" y2="893.515"/>
			<line fill="none" stroke="#000000" stroke-miterlimit="10" x1="465.876" y1="455.676" x2="563.086" y2="893.515"/>
			<line fill="none" stroke="#000000" stroke-miterlimit="10" x1="465.613" y1="455.676" x2="550.771" y2="893.515"/>
			<line fill="none" stroke="#000000" stroke-miterlimit="10" x1="465.613" y1="455.676" x2="538.456" y2="893.515"/>
			<line fill="none" stroke="#000000" stroke-miterlimit="10" x1="465.613" y1="455.676" x2="526.141" y2="893.515"/>
			<line fill="none" stroke="#000000" stroke-miterlimit="10" x1="465.613" y1="455.676" x2="513.826" y2="893.515"/>
			<line fill="none" stroke="#000000" stroke-miterlimit="10" x1="465.613" y1="455.676" x2="501.249" y2="893.515"/>
			<line fill="none" stroke="#000000" stroke-miterlimit="10" x1="465.352" y1="455.676" x2="488.934" y2="893.515"/>
			<line fill="none" stroke="#000000" stroke-miterlimit="10" x1="465.352" y1="455.676" x2="476.619" y2="893.515"/>
			<line fill="none" stroke="#000000" stroke-miterlimit="10" x1="465.352" y1="455.676" x2="464.304" y2="893.515"/>
			<line fill="none" stroke="#000000" stroke-miterlimit="10" x1="465.352" y1="455.676" x2="451.988" y2="893.515"/>
			<line fill="none" stroke="#000000" stroke-miterlimit="10" x1="465.352" y1="455.676" x2="439.674" y2="893.515"/>
			<line fill="none" stroke="#000000" stroke-miterlimit="10" x1="465.352" y1="455.676" x2="427.358" y2="893.515"/>
			<line fill="none" stroke="#000000" stroke-miterlimit="10" x1="465.09" y1="455.676" x2="415.043" y2="893.515"/>
			<line fill="none" stroke="#000000" stroke-miterlimit="10" x1="465.09" y1="455.676" x2="402.729" y2="893.515"/>
			<line fill="none" stroke="#000000" stroke-miterlimit="10" x1="465.09" y1="455.676" x2="390.151" y2="893.515"/>
			<line fill="none" stroke="#000000" stroke-miterlimit="10" x1="465.09" y1="455.676" x2="377.836" y2="893.515"/>
			<line fill="none" stroke="#000000" stroke-miterlimit="10" x1="465.09" y1="455.676" x2="365.521" y2="893.515"/>
			<line fill="none" stroke="#000000" stroke-miterlimit="10" x1="465.09" y1="455.676" x2="353.206" y2="893.515"/>
			<line fill="none" stroke="#000000" stroke-miterlimit="10" x1="464.828" y1="455.676" x2="340.891" y2="893.515"/>
			<line fill="none" stroke="#000000" stroke-miterlimit="10" x1="464.828" y1="455.676" x2="328.576" y2="893.515"/>
			<line fill="none" stroke="#000000" stroke-miterlimit="10" x1="464.828" y1="455.676" x2="316.261" y2="893.515"/>
			<line fill="none" stroke="#000000" stroke-miterlimit="10" x1="464.828" y1="455.676" x2="303.946" y2="893.515"/>
			<line fill="none" stroke="#000000" stroke-miterlimit="10" x1="464.828" y1="455.676" x2="291.631" y2="893.515"/>
			<line fill="none" stroke="#000000" stroke-miterlimit="10" x1="464.828" y1="455.676" x2="279.316" y2="893.515"/>
			<line fill="none" stroke="#000000" stroke-miterlimit="10" x1="464.565" y1="455.676" x2="266.739" y2="893.515"/>
			<line fill="none" stroke="#000000" stroke-miterlimit="10" x1="464.565" y1="455.676" x2="254.424" y2="893.515"/>
			<line fill="none" stroke="#000000" stroke-miterlimit="10" x1="464.565" y1="455.676" x2="242.108" y2="893.515"/>
			<line fill="none" stroke="#000000" stroke-miterlimit="10" x1="464.565" y1="455.676" x2="229.793" y2="893.515"/>
			<line fill="none" stroke="#000000" stroke-miterlimit="10" x1="464.565" y1="455.676" x2="217.479" y2="893.515"/>
			<line fill="none" stroke="#000000" stroke-miterlimit="10" x1="464.565" y1="455.676" x2="205.164" y2="893.515"/>
		</g>
	</g>
	<g>
		<path d="M93.804,1087.149c-9.433,8.385-21.748,13.102-35.635,13.102c-10.219,0-20.962-2.883-28.822-7.599
			C12.053,1082.171,0,1063.043,0,1039.985s12.315-42.447,29.608-52.666c7.861-4.717,17.293-7.337,28.298-7.337
			c13.101,0,25.417,3.931,35.897,13.102v-10.481h22.534v115.028H93.804V1087.149z M93.018,1018.5
			c-7.075-9.434-18.866-16.508-32.753-16.508c-22.272,0-36.945,17.817-36.945,37.993c0,20.7,15.983,37.993,38.255,37.993
			c11.791,0,23.844-5.765,31.705-16.507V1018.5H93.018z"/>
		<path d="M221.409,1003.04c-2.62-0.786-5.502-1.048-9.17-1.048c-12.053,0-24.63,8.385-31.181,19.39v76.249h-23.32V982.603h22.534
			v13.102c5.764-7.861,17.555-15.722,34.587-15.722c2.358,0,6.289,0.262,9.171,0.786L221.409,1003.04z"/>
		<path d="M330.672,1097.631c-4.454,1.571-11.528,2.357-18.079,2.357c-14.411,0-25.154-5.24-32.491-13.363
			c-6.813-7.599-9.433-18.079-9.433-30.656v-52.666h-29.346v-20.7h29.346v-31.967h23.32v31.967h36.683v20.7h-36.683v53.977
			c0,6.026,0.524,11.267,3.406,14.673c3.144,3.931,9.694,6.026,15.983,6.026c3.406,0,9.433-0.523,12.839-1.572L330.672,1097.631z"/>
		<path d="M362.639,982.341h23.32v115.027h-23.32V982.341z"/>
		<path d="M450.154,982.341v11.005c4.717-5.24,18.08-13.363,33.801-13.363c17.031,0,31.181,7.599,40.613,19.128
			c10.481-10.481,23.059-19.128,43.758-19.128c16.508,0,31.443,7.337,40.876,19.39c7.074,8.909,10.48,20.176,10.48,39.565v58.693
			h-23.319v-62.361c0-11.791-2.358-18.08-6.551-23.059c-5.24-6.026-13.102-9.957-21.486-9.957c-16.77,0-27.512,8.647-35.11,16.508
			c1.31,5.503,1.834,12.315,1.834,20.438v58.693h-23.32v-62.361c0-11.791-2.358-18.08-6.551-23.058
			c-5.24-6.027-13.362-9.957-22.271-9.957c-14.149,0-25.679,8.646-32.229,16.507v79.131h-23.32V983.127h22.796V982.341z"/>
		<path d="M743.096,1087.149c-9.434,8.385-21.748,13.102-35.636,13.102c-10.219,0-20.962-2.883-28.822-7.599
			c-17.293-10.219-29.347-29.347-29.347-52.405c0-23.058,12.315-42.447,29.609-52.666c7.86-4.717,17.293-7.337,28.298-7.337
			c13.102,0,25.416,3.931,35.897,13.102v-10.481h22.533v115.028h-22.533V1087.149z M742.31,1018.5
			c-7.075-9.434-18.866-16.508-32.753-16.508c-22.272,0-36.945,17.817-36.945,37.993c0,20.7,15.983,37.993,38.255,37.993
			c11.791,0,23.845-5.765,31.705-16.507V1018.5H742.31z"/>
		<path d="M878.299,1097.631c-4.454,1.571-11.529,2.357-18.079,2.357c-14.411,0-25.154-5.24-32.491-13.363
			c-6.812-7.599-9.433-18.079-9.433-30.656v-52.666h-29.347v-20.7h29.347v-31.967h23.32v31.967h36.683v20.7h-36.683v53.977
			c0,6.026,0.523,11.267,3.406,14.673c3.144,3.931,9.694,6.026,15.983,6.026c3.406,0,9.433-0.523,12.839-1.572L878.299,1097.631z"/>
		<path d="M919.174,1044.964c1.311,19.39,17.032,34.849,37.208,34.849c17.031,0,26.464-8.385,33.015-15.721l15.197,14.411
			c-8.646,11.005-24.893,21.485-48.475,21.485c-33.538,0-59.479-25.416-59.479-60.003s23.582-60.003,56.072-60.003
			c31.967,0,55.287,25.94,55.287,60.003c0,1.048,0,2.62-0.262,4.979H919.174z M921.009,1025.312h62.623
			c-3.406-14.674-16.77-24.893-30.395-24.893C938.564,1000.42,924.939,1010.377,921.009,1025.312z"/>
	</g>
	<rect x="362.901" y="950.636" width="23.058" height="17.294"/>
</g>
</svg>
